<svg xmlns="http://www.w3.org/2000/svg" xmlns:xlink="http://www.w3.org/1999/xlink" version="1.1" viewBox="0 0 502 375" xml:space="preserve" enable-background="new 0 0 502 375">
<g color-interpolation="linearRGB" transform="scale(0.75,0.75)">


<g id="Pacific_Crest_Trail">
<clipPath id="cp_1">
<path d="M482.48931 500 L482.48931 222.80569 L0 222.80569 L0 500 Z "/>
</clipPath>
<g clip-path="url(#cp_1)">
<g transform="matrix(1.3333333 0 0 -1.3333333 335 250)">
<path d="M42.761164 -158.70399 L42.761164 -158.38524 L42.123663 -158.38524 L42.123663 -157.42899 L41.486162 -157.42899 L42.442413 -156.47274 L42.442413 -155.83524 L43.398665 -155.51649 L43.717415 -152.96648 L43.079914 -152.01023 L42.761164 -152.01023 L41.804912 -150.09773 L42.123663 -149.77898 L41.804912 -149.46023 L42.123663 -149.14148 L43.079914 -149.14148 L43.079914 -148.50398 L42.123663 -147.22898 L41.486162 -147.22898 L40.529911 -145.63522 L40.529911 -145.31647 L39.573659 -144.67897 L40.21116 -144.36022 L39.89241 -143.40397 L40.529911 -143.40397 L40.848661 -142.76647 L40.529911 -141.17272 L41.167412 -140.21647 L40.848661 -139.57897 L41.167412 -137.66646 L41.167412 -136.71021 L39.89241 -135.11646 L39.89241 -134.79771 L39.573659 -134.79771 L39.254909 -134.16021 L38.936159 -134.47896 L38.936159 -133.52271 L38.298658 -133.20396 L38.617408 -132.56646 L38.936159 -132.56646 L38.936159 -132.24771 L39.254909 -132.56646 L38.936159 -131.29145 L39.573659 -130.9727 L39.573659 -129.6977 L39.89241 -129.37895 L39.254909 -128.74145 L39.573659 -128.4227 L38.936159 -127.46645 L38.936159 -127.1477 L37.979907 -127.46645 L38.298658 -127.1477 L37.979907 -126.82895 L38.617408 -126.82895 L38.617408 -126.19145 L38.617408 -125.55395 L37.979907 -125.2352 L37.661157 -124.27895 L37.023656 -123.64144 L36.704905 -123.9602 L36.386155 -123.64144 L35.429904 -124.27895 L34.473652 -123.64144 L33.517401 -124.27895 L31.604899 -124.27895 L31.604899 -123.64144 L31.286148 -123.32269 L30.967398 -123.00394 L30.011146 -122.68519 L29.054895 -123.64144 L28.417394 -123.64144 L28.098644 -123.9602 L27.461143 -123.9602 L26.823642 -123.64144 L26.186141 -123.32269 L25.54864 -123.9602 L25.22989 -123.64144 L24.911139 -123.9602 L21.404885 -122.04769 L19.811132 -123.00394 L19.173632 -122.36644 L18.854881 -122.68519 L17.89863 -122.36644 L17.89863 -122.68519 L16.942379 -123.00394 L16.942379 -122.36644 L16.304878 -122.36644 L16.304878 -121.72894 L15.986127 -122.04769 L15.667377 -121.72894 L15.348626 -122.04769 L15.348626 -121.72894 L14.392375 -122.04769 L12.798623 -122.04769 L12.479873 -122.04769 L12.479873 -121.41019 L11.842372 -121.09144 L12.161122 -120.45394 L11.204871 -119.81644 L11.523621 -118.54144 L11.204871 -118.22269 L11.204871 -117.90394 L10.248619 -117.26644 L10.248619 -116.94769 L9.929869 -116.62894 L9.2923682 -116.62894 L8.0173664 -115.67268 L7.3798656 -115.67268 L6.7423647 -115.35393 L6.1048638 -115.35393 L5.467363 -115.03518 L5.7861134 -114.39768 L6.4236143 -114.39768 L6.4236143 -113.76018 L6.7423647 -113.76018 L6.7423647 -112.80393 L8.0173664 -112.16643 L8.6548673 -112.16643 L8.9736177 -111.84768 L8.6548673 -111.21018 L8.6548673 -109.61643 L9.2923682 -109.61643 L9.6111186 -108.97892 L11.523621 -107.70392 L11.523621 -107.06642 L12.479873 -107.06642 L12.161122 -106.42892 L12.479873 -106.11017 L12.798623 -104.51642 L12.479873 -104.19767 L12.479873 -103.56017 L12.161122 -103.24142 L12.161122 -102.28517 L11.842372 -101.96642 L11.204871 -99.735162 L12.798623 -99.735162 L13.117373 -99.735162 L14.392375 -99.416412 L14.711126 -98.46016 L14.392375 -97.822659 L14.711126 -97.822659 L14.392375 -97.185159 L14.711126 -96.866408 L14.711126 -96.547658 L15.986127 -95.910157 L15.667377 -95.591406 L16.304878 -95.272656 L16.942379 -94.635155 L15.986127 -93.360153 L16.623628 -92.722652 L16.623628 -92.085152 L15.667377 -91.447651 L15.667377 -90.81015 L14.073625 -89.853899 L14.073625 -88.897647 L14.392375 -87.941396 L14.711126 -86.028893 L14.073625 -85.072642 L14.711126 -84.435141 L14.392375 -83.79764 L14.711126 -83.160139 L14.392375 -82.203888 L14.711126 -81.885138 L14.392375 -81.247637 L14.711126 -80.610136 L14.073625 -79.972635 L14.392375 -79.335134 L14.073625 -79.016384 L13.117373 -79.335134 L13.117373 -78.697633 L12.161122 -78.060133 L11.204871 -78.060133 L10.56737 -77.103881 L9.929869 -74.553878 L10.56737 -73.278876 L9.6111186 -71.685124 L9.929869 -71.047623 L9.6111186 -70.091372 L9.2923682 -69.772621 L9.929869 -68.81637 L9.2923682 -68.178869 L8.9736177 -66.266366 L8.3361169 -65.628866 L6.7423647 -65.947616 L6.4236143 -64.672614 L5.7861134 -64.353864 L5.467363 -64.672614 L4.8298621 -64.353864 L4.8298621 -63.397613 L3.2361099 -62.760112 L2.5986091 -62.122611 L1.9611082 -62.122611 L1.6423578 -61.48511 L1.9611082 -59.891358 L0.68610645 -58.297606 L1.3236073 -57.660105 L0.68610645 -56.703853 L1.0048569 -56.066353 L0.048605581 -55.428852 L-0.90764572 -55.110101 L-1.5451466 -54.15385 L-1.863897 -53.8351 L-1.5451466 -52.878848 L-1.863897 -52.560098 L-1.863897 -52.241347 L-2.1826475 -51.603847 L-2.8201483 -51.285096 L-3.4576492 -51.285096 L-4.4139005 -50.647595 L-4.7326509 -50.647595 L-4.7326509 -49.691344 L-5.3701518 -48.416342 L-7.2826544 -47.778841 L-6.6451535 -45.228838 L-7.6014048 -45.547588 L-7.2826544 -45.228838 L-7.6014048 -45.547588 L-7.9201553 -45.228838 L-8.8764066 -45.547588 L-9.5139074 -44.910087 L-9.195157 -44.272587 L-10.151408 -44.591337 L-10.470159 -44.272587 L-10.788909 -44.272587 L-11.42641 -43.953836 L-10.470159 -42.041333 L-10.151408 -41.085082 L-10.151408 -40.766332 L-10.151408 -40.128831 L-10.788909 -40.128831 L-11.42641 -39.49133 L-11.10766 -37.897578 L-11.10766 -37.897578 L-11.10766 -37.578827 L-12.063911 -35.985075 L-12.382661 -35.666325 L-12.701412 -35.666325 L-13.020162 -35.028824 L-13.338913 -34.710074 L-13.657663 -34.072573 L-14.613914 -33.435072 L-14.295164 -32.16007 L-14.613914 -31.84132 L-14.932665 -32.16007 L-15.570166 -32.16007 L-16.845167 -31.203819 L-16.845167 -30.566318 L-18.120169 -29.291316 L-18.120169 -28.653815 L-17.801419 -28.016314 L-18.120169 -27.378814 L-20.032672 -26.422562 L-19.395171 -26.103812 L-20.032672 -25.466311 L-20.988923 -22.916307 L-21.626424 -22.597557 L-21.307673 -21.322555 L-21.626424 -20.047554 L-21.945174 -20.047554 L-22.263925 -19.728803 L-22.263925 -18.453801 L-22.901426 -17.49755 L-22.901426 -16.541299 L-23.538927 -15.903798 L-23.857677 -14.947547 L-24.495178 -14.310046 L-25.132679 -14.310046 L-25.451429 -13.353794 L-26.08893 -13.353794 L-26.40768 -12.716294 L-27.045181 -12.078793 L-27.363932 -11.441292 L-28.001433 -10.803791 L-28.320183 -11.122541 L-28.638933 -10.803791 L-28.320183 -9.8475397 L-29.595185 -8.2537875 L-30.870187 -7.935037 L-32.463939 -6.3412849 L-34.376441 -6.6600353 L-35.332693 -6.0225344 L-35.332693 -5.703784 L-35.970193 -5.703784 L-35.651443 -6.0225344 L-36.926445 -4.7475327 L-36.288944 -4.4287823 L-36.288944 -3.7912814 L-37.245195 -2.5162797 L-38.838947 -2.1975292 L-38.838947 -1.5600284 L-38.838947 -1.5600284 L-39.157698 -1.5600284 L-39.795199 -0.9225275 L-41.388951 -0.60377707 L-40.75145 0.35247424 L-41.388951 1.9462264 L-42.026452 1.9462264 L-42.026452 2.2649768 L-41.707701 2.9024777 L-41.388951 2.5837273 L-41.0702 3.2212281 L-40.4327 2.9024777 L-40.4327 3.5399786 L-40.75145 3.858729 L-40.113949 3.858729 L-40.113949 5.1337307 L-40.75145 5.7712316 L-40.4327 6.4087325 L-41.388951 8.3212351 L-41.0702 8.958736 L-40.75145 9.2774864 L-40.4327 10.552488 L-41.0702 10.871239 L-42.345202 11.189989 L-42.663953 11.82749 L-42.026452 12.464991 L-42.026452 13.102492 L-41.388951 13.739992 L-41.388951 15.333745 L-41.0702 15.333745 L-42.345202 18.839999 L-43.620204 19.4775 L-43.620204 19.15875 L-43.938954 19.796251 L-44.576455 20.115001 L-44.895206 21.071252 L-45.532706 21.071252 L-46.170207 21.390003 L-46.488958 21.071252 L-47.445209 21.708753 L-47.126459 21.708753 L-47.76396 22.027504 L-48.08271 22.665005 L-47.76396 23.621256 L-47.76396 24.577507 L-49.676462 24.896258 L-49.995213 24.577507 L-50.951464 24.258757 L-51.270214 23.621256 L-51.907715 23.621256 L-51.907715 23.940006 L-52.226466 23.302505 L-53.182717 23.621256 L-53.501467 23.302505 L-53.501467 23.621256 L-54.138968 23.621256 L-54.457719 23.940006 L-55.095219 23.940006 L-55.41397 24.258757 L-56.051471 23.940006 L-55.73272 24.258757 L-56.370221 24.577507 L-57.645223 24.577507 L-57.963973 25.852509 L-58.601474 25.852509 L-58.920225 25.215008 L-59.876476 25.215008 L-60.513977 25.533759 L-60.195226 26.80876 L-60.195226 27.446261 L-59.876476 27.446261 L-60.195226 27.765012 L-60.195226 28.402512 L-60.513977 28.402512 L-60.832727 29.040013 L-61.151478 29.040013 L-61.151478 28.721263 L-61.151478 28.402512 L-61.788979 28.083762 L-62.426479 28.402512 L-62.426479 28.083762 L-62.426479 27.446261 L-62.74523 27.446261 L-63.06398 26.80876 L-63.382731 27.127511 L-63.701481 27.127511 L-64.020232 26.171259 L-64.657733 25.852509 L-65.295233 25.215008 L-65.932734 25.533759 L-66.251485 25.215008 L-67.845237 26.49001 L-67.845237 27.127511 L-68.163987 27.765012 L-67.845237 28.721263 L-67.845237 29.040013 L-68.801488 29.996265 L-69.120239 29.996265 L-69.120239 31.271266 L-69.757739 31.908767 L-70.713991 32.227518 L-71.032741 33.183769 L-71.988992 33.502519 L-71.988992 34.777521 L-72.945244 36.371273 L-72.626493 37.008774 L-71.988992 39.877528 L-71.670242 39.558778 L-71.670242 39.877528 L-72.307743 40.196278 L-72.307743 40.515029 L-71.988992 40.833779 L-71.988992 41.47128 L-71.670242 42.108781 L-70.39524 42.108781 L-70.07649 42.746282 L-68.801488 42.427532 L-68.482738 42.108781 L-67.845237 42.108781 L-67.207736 43.702533 L-66.251485 44.340034 L-65.932734 44.977535 L-65.295233 44.658785 L-64.020232 45.615036 L-63.06398 44.977535 L-62.107729 45.296285 L-61.470228 44.977535 L-61.151478 44.340034 L-60.513977 44.658785 L-59.876476 45.296285 L-59.557726 45.933786 L-59.876476 46.571287 L-59.876476 46.890038 L-60.195226 46.890038 L-60.195226 47.208788 L-59.238975 47.527538 L-58.601474 48.165039 L-57.963973 48.165039 L-57.326473 48.80254 L-56.370221 49.121291 L-56.370221 49.758792 L-56.051471 50.077542 L-56.051471 50.715043 L-55.73272 51.033793 L-56.051471 51.352544 L-56.370221 51.671294 L-56.688972 52.308795 L-56.051471 53.583797 L-56.370221 53.902547 L-56.051471 54.221298 L-56.370221 54.858798 L-55.41397 55.496299 L-55.41397 57.090051 L-55.095219 57.408802 L-55.41397 58.365053 L-55.095219 59.002554 L-54.457719 59.321305 L-54.776469 60.596306 L-54.776469 61.552558 L-54.457719 61.871308 L-54.776469 63.46506 L-54.457719 64.102561 L-55.095219 64.740062 L-55.41397 65.377563 L-55.41397 66.333814 L-54.457719 66.971315 L-53.820218 66.652565 L-53.182717 67.608816 L-53.501467 68.246317 L-52.863966 69.202568 L-52.863966 70.47757 L-51.907715 72.071322 L-51.588965 72.071322 L-51.270214 72.390072 L-51.270214 73.346324 L-51.907715 73.665074 L-51.588965 73.983824 L-51.907715 74.302575 L-51.907715 75.258826 L-53.182717 76.852578 L-53.820218 77.171329 L-53.820218 78.765081 L-53.501467 79.083831 L-53.820218 79.721332 L-52.545216 80.677584 L-51.588965 80.677584 L-51.588965 81.952585 L-51.270214 82.271336 L-51.588965 83.227587 L-50.951464 83.865088 L-50.632713 86.415091 L-50.951464 86.733842 L-49.995213 88.327594 L-49.357712 88.965095 L-49.357712 89.602596 L-48.40146 89.921346 L-48.720211 91.196348 L-48.40146 91.515098 L-48.40146 92.152599 L-48.40146 93.108851 L-48.40146 93.427601 L-48.40146 94.702603 L-48.08271 94.702603 L-47.76396 95.658854 L-47.76396 96.296355 L-48.40146 96.615105 L-48.720211 97.252606 L-48.40146 97.571357 L-49.038961 97.890107 L-49.357712 98.208857 L-48.720211 100.75886 L-49.038961 102.03386 L-48.40146 102.67136 L-48.08271 104.58387 L-49.038961 106.49637 L-48.08271 107.45262 L-48.08271 108.40887 L-47.76396 108.72762 L-48.40146 109.68387 L-47.445209 110.64012 L-47.126459 111.91513 L-47.445209 112.87138 L-46.807708 113.82763 L-46.488958 115.10263 L-46.807708 116.05888 L-47.76396 117.33388 L-47.445209 117.65263 L-47.126459 119.24639 L-46.170207 119.88389 L-46.170207 121.15889 L-46.488958 122.43389 L-47.445209 122.43389 L-47.445209 123.07139 L-48.08271 123.70889 L-47.76396 124.02764 L-48.08271 124.34639 L-48.08271 125.30264 L-48.720211 125.94015 L-49.357712 126.57765 L-48.720211 127.85265 L-48.40146 127.85265 L-48.08271 128.1714 L-47.76396 128.49015 L-48.40146 128.49015 L-48.720211 129.12765 L-48.720211 130.7214 L-50.313963 130.0839 L-50.632713 130.40265 L-50.951464 130.40265 L-51.588965 131.9964 L-52.226466 132.31515 L-52.226466 132.31515 L-52.226466 132.95265 L-51.907715 132.95265 L-51.907715 133.59016 L-51.270214 133.59016 L-51.270214 133.90891 L-50.313963 133.90891 L-49.995213 134.22766 L-49.357712 133.90891 L-47.76396 134.86516 L-48.08271 135.50266 L-47.76396 135.82141 L-48.08271 135.82141 L-48.40146 137.41516 L-48.08271 138.37141 L-47.76396 140.60267 L-47.126459 140.92142 L-47.445209 141.55892 L-46.807708 141.55892 L-46.488958 141.87767 L-45.532706 141.87767 L-44.895206 143.15267 L-44.257705 143.15267 L-44.257705 143.79017 L-42.982703 145.70267 L-43.301453 147.29642 L-42.982703 147.93393 L-42.345202 148.57143 L-42.026452 148.25268 L-41.0702 148.89018 L-41.707701 149.84643 L-41.707701 149.84643 L-42.026452 150.80268 L-42.345202 150.80268 L-42.345202 151.12143 L-42.345202 152.07768 L-41.707701 151.75893 L-41.707701 152.71518 L-41.0702 152.71518 L-41.388951 153.67143 L-40.75145 153.99018 L-41.0702 154.62768 L-41.388951 154.94643 L-41.0702 156.22144 L-42.026452 157.49644 L-41.707701 157.81519 L-42.026452 157.81519 L-42.345202 159.40894 L-43.301453 160.36519 L-42.982703 161.00269 L-42.345202 161.32144 L-42.026452 162.59645 L-41.388951 163.23395 L-40.75145 164.8277 L-41.388951 166.42145 L-40.75145 167.05895 L-39.795199 166.7402 L-39.476448 167.05895 L-39.795199 167.69645 L-39.795199 168.6527 L-40.75145 168.97145 L-40.113949 169.92771 L-40.113949 170.24646 L-40.75145 170.56521 L-41.388951 170.56521 L-42.345202 172.47771 L-41.707701 174.07146 L-41.388951 174.07146 L-41.0702 174.39021 L-41.388951 174.39021 L-41.0702 174.39021 L-40.75145 175.02771 L-40.4327 175.02771 L-39.795199 175.34646 L-39.795199 174.70896 L-39.157698 174.70896 L-38.838947 175.34646 L-38.838947 175.66521 L-38.838947 175.66521 L-38.520197 175.98396 L-38.201446 175.98396 L-37.882696 176.30271 L-37.245195 175.98396 L-36.926445 176.30271 L-36.607694 177.57772 L-36.926445 178.21522 L-36.607694 178.53397 L-36.926445 179.80897 L-35.332693 181.40272 L-35.970193 181.72147 L-35.970193 182.67772 L-36.288944 182.99647 L-35.970193 183.63397 L-35.970193 183.95272 L-36.926445 184.59023 L-36.926445 185.22773 L-37.563946 186.18398 L-37.563946 186.82148 L-36.706832 188.25 " stroke="#556B2F" fill="none" stroke-opacity="1" stroke-width="1.5" stroke-linecap="butt" stroke-linejoin="round" stroke-miterlimit="10"/>

</g>
</g>
<clipPath id="cp_2">
<path d="M482.48931 222.80569 L482.48931 0 L0 0 L0 222.80569 Z "/>
</clipPath>
<g clip-path="url(#cp_2)">
<g transform="matrix(1.3333333 0 0 -1.3333333 335 250)">
<path d="M42.761164 -158.47951 L42.761164 -158.16076 L42.123663 -158.16076 L42.123663 -157.20451 L41.486162 -156.88576 L42.442413 -156.24826 L42.442413 -155.61076 L43.398665 -154.97326 L43.717415 -152.74201 L43.079914 -151.46701 L42.761164 -151.46701 L41.804912 -149.87325 L42.123663 -149.5545 L41.804912 -149.23575 L42.123663 -148.59825 L43.079914 -148.59825 L43.079914 -148.2795 L42.123663 -147.0045 L41.486162 -146.68575 L40.529911 -145.41075 L40.529911 -145.092 L39.573659 -144.4545 L40.21116 -144.13575 L39.89241 -143.17949 L40.529911 -143.17949 L40.848661 -142.54199 L40.529911 -140.94824 L41.167412 -139.99199 L40.848661 -139.35449 L41.167412 -137.12324 L41.167412 -136.48573 L39.89241 -134.89198 L39.89241 -134.57323 L39.573659 -134.57323 L39.254909 -133.93573 L38.936159 -133.93573 L38.936159 -133.29823 L38.298658 -132.97948 L38.617408 -132.34198 L38.936159 -132.34198 L38.936159 -132.02323 L39.254909 -132.02323 L38.936159 -131.06698 L39.573659 -130.74823 L39.573659 -129.47323 L39.89241 -128.83572 L39.254909 -128.51697 L39.573659 -128.19822 L38.936159 -127.24197 L38.936159 -126.92322 L37.979907 -126.92322 L38.298658 -126.92322 L37.979907 -126.60447 L38.617408 -126.60447 L38.617408 -125.96697 L38.617408 -125.32947 L37.979907 -125.01072 L37.661157 -124.05447 L37.023656 -123.41697 L36.704905 -123.73572 L36.386155 -123.41697 L35.429904 -123.73572 L34.473652 -123.41697 L33.517401 -123.73572 L31.604899 -124.05447 L31.604899 -123.41697 L31.286148 -122.77947 L30.967398 -122.46072 L30.011146 -122.46072 L29.054895 -123.41697 L28.417394 -123.09822 L28.098644 -123.73572 L27.461143 -123.73572 L26.823642 -123.09822 L26.186141 -123.09822 L25.54864 -123.73572 L25.22989 -123.41697 L24.911139 -123.73572 L21.404885 -121.82321 L19.811132 -122.46072 L19.173632 -122.14197 L18.854881 -122.46072 L17.89863 -122.14197 L17.89863 -122.46072 L16.942379 -122.46072 L16.942379 -122.14197 L16.304878 -121.82321 L16.304878 -121.50446 L15.986127 -121.82321 L15.667377 -121.50446 L15.348626 -121.50446 L15.348626 -121.18571 L14.392375 -121.82321 L12.798623 -121.82321 L12.479873 -121.50446 L12.479873 -120.86696 L11.842372 -120.54821 L12.161122 -119.91071 L11.204871 -119.59196 L11.523621 -118.31696 L11.204871 -117.99821 L11.204871 -117.36071 L10.248619 -117.04196 L10.248619 -116.72321 L9.929869 -116.40446 L9.2923682 -116.08571 L8.0173664 -115.44821 L7.3798656 -115.44821 L6.7423647 -114.81071 L6.1048638 -115.12946 L5.467363 -114.49195 L5.7861134 -114.1732 L6.4236143 -113.85445 L6.4236143 -113.21695 L6.7423647 -113.21695 L6.7423647 -112.2607 L8.0173664 -111.94195 L8.6548673 -111.94195 L8.9736177 -111.6232 L8.6548673 -110.9857 L8.6548673 -109.39195 L9.2923682 -109.39195 L9.6111186 -108.75445 L11.523621 -107.16069 L11.523621 -106.84194 L12.479873 -106.52319 L12.161122 -106.20444 L12.479873 -105.88569 L12.798623 -104.29194 L12.479873 -103.97319 L12.479873 -103.33569 L12.161122 -103.01694 L12.161122 -102.06069 L11.842372 -101.74194 L11.204871 -99.510685 L12.798623 -99.191934 L13.117373 -99.510685 L14.392375 -99.191934 L14.711126 -98.235683 L14.392375 -97.598182 L14.711126 -97.279431 L14.392375 -96.960681 L14.711126 -96.641931 L14.711126 -96.32318 L15.986127 -95.685679 L15.667377 -95.048178 L16.304878 -95.048178 L16.942379 -94.410678 L15.986127 -92.816925 L16.623628 -92.498175 L16.623628 -91.860674 L15.667377 -91.223173 L15.667377 -90.266922 L14.073625 -89.629421 L14.073625 -88.354419 L14.392375 -87.716918 L14.711126 -85.804416 L14.073625 -84.848165 L14.711126 -84.210664 L14.392375 -83.254412 L14.711126 -82.935662 L14.392375 -81.979411 L14.711126 -81.34191 L14.392375 -81.023159 L14.711126 -80.385658 L14.073625 -79.748158 L14.392375 -79.110657 L14.073625 -78.791906 L13.117373 -78.791906 L13.117373 -78.473156 L12.161122 -77.835655 L11.204871 -77.835655 L10.56737 -76.879404 L9.929869 -74.3294 L10.56737 -72.735648 L9.6111186 -71.460646 L9.929869 -70.823145 L9.6111186 -69.866894 L9.2923682 -69.548144 L9.929869 -68.273142 L9.2923682 -67.954392 L8.9736177 -66.041889 L8.3361169 -65.404388 L6.7423647 -65.723139 L6.4236143 -64.448137 L5.7861134 -64.129386 L5.467363 -64.448137 L4.8298621 -63.810636 L4.8298621 -63.173135 L3.2361099 -62.535634 L2.5986091 -61.898133 L1.9611082 -61.898133 L1.6423578 -60.941882 L1.9611082 -59.66688 L0.68610645 -58.073128 L1.3236073 -57.435627 L0.68610645 -56.479376 L1.0048569 -55.841875 L0.048605581 -55.204374 L-0.90764572 -54.885624 L-1.5451466 -53.610622 L-1.863897 -53.610622 L-1.5451466 -52.33562 L-1.863897 -52.01687 L-1.863897 -52.01687 L-2.1826475 -51.379369 L-2.8201483 -51.060619 L-3.4576492 -51.060619 L-4.4139005 -50.423118 L-4.7326509 -50.423118 L-4.7326509 -49.466866 L-5.3701518 -48.191865 L-7.2826544 -47.235613 L-6.6451535 -45.00436 L-7.6014048 -45.323111 L-7.2826544 -45.00436 L-7.6014048 -45.00436 L-7.9201553 -44.68561 L-8.8764066 -45.00436 L-9.5139074 -44.366859 L-9.195157 -44.048109 L-10.151408 -44.366859 L-10.470159 -44.048109 L-10.788909 -44.048109 L-11.42641 -43.729359 L-10.470159 -41.498106 L-10.151408 -40.860605 L-10.151408 -40.541854 L-10.151408 -39.904353 L-10.788909 -39.904353 L-11.42641 -38.948102 L-11.10766 -37.6731 L-11.10766 -37.6731 L-11.10766 -37.35435 L-12.063911 -35.760598 L-12.382661 -35.441847 L-12.701412 -35.441847 L-13.020162 -34.485596 L-13.338913 -34.485596 L-13.657663 -33.529345 L-14.613914 -33.210594 L-14.295164 -31.935593 L-14.613914 -31.616842 L-14.932665 -31.935593 L-15.570166 -31.935593 L-16.845167 -30.979341 L-16.845167 -30.34184 L-18.120169 -29.066839 L-18.120169 -28.110587 L-17.801419 -27.791837 L-18.120169 -27.154336 L-20.032672 -26.198085 L-19.395171 -25.879334 L-20.032672 -24.923083 L-20.988923 -22.69183 L-21.626424 -22.37308 L-21.307673 -21.098078 L-21.626424 -19.504326 L-21.945174 -19.823076 L-22.263925 -19.504326 L-22.263925 -17.910573 L-22.901426 -16.954322 L-22.901426 -15.998071 L-23.538927 -15.36057 L-23.857677 -14.404319 L-24.495178 -13.766818 L-25.132679 -14.085568 L-25.451429 -13.129317 L-26.08893 -13.129317 L-26.40768 -12.173066 L-27.045181 -11.854315 L-27.363932 -10.898064 L-28.001433 -10.579313 L-28.320183 -10.579313 L-28.638933 -10.260563 L-28.320183 -9.6230622 L-29.595185 -7.7105595 L-30.870187 -7.7105595 L-32.463939 -6.1168074 L-34.376441 -6.4355578 L-35.332693 -5.7980569 L-35.332693 -5.4793065 L-35.970193 -5.1605561 L-35.651443 -5.7980569 L-36.926445 -4.5230552 L-36.288944 -4.2043048 L-36.288944 -3.5668039 L-37.245195 -2.2918022 L-38.838947 -1.6543013 L-38.838947 -1.3355509 L-38.838947 -1.0168004 L-39.157698 -1.3355509 L-39.795199 -0.69805 L-41.388951 -0.37929957 L-40.75145 0.57695173 L-41.388951 2.1707039 L-42.026452 2.1707039 L-42.026452 2.8082048 L-41.707701 3.1269552 L-41.388951 3.1269552 L-41.0702 3.4457056 L-40.4327 3.4457056 L-40.4327 4.0832065 L-40.75145 4.0832065 L-40.113949 4.0832065 L-40.113949 5.6769587 L-40.75145 6.3144595 L-40.4327 6.63321 L-41.388951 8.864463 L-41.0702 9.1832135 L-40.75145 9.5019639 L-40.4327 10.776966 L-41.0702 11.095716 L-42.345202 11.414466 L-42.663953 12.370718 L-42.026452 12.689468 L-42.026452 13.326969 L-41.388951 14.28322 L-41.388951 15.558222 L-41.0702 15.558222 L-42.345202 19.064477 L-43.620204 19.701978 L-43.620204 19.383227 L-43.938954 20.020728 L-44.576455 20.020728 L-44.895206 21.29573 L-45.532706 20.97698 L-46.170207 21.29573 L-46.488958 20.97698 L-47.445209 21.61448 L-47.126459 21.933231 L-47.76396 21.933231 L-48.08271 22.570732 L-47.76396 23.845733 L-47.76396 24.801985 L-49.676462 24.801985 L-49.995213 24.483234 L-50.951464 24.483234 L-51.270214 23.845733 L-51.907715 23.526983 L-51.907715 23.845733 L-52.226466 23.526983 L-53.182717 23.526983 L-53.501467 23.208233 L-53.501467 23.845733 L-54.138968 23.526983 L-54.457719 24.164484 L-55.095219 23.845733 L-55.41397 24.164484 L-56.051471 23.845733 L-55.73272 24.164484 L-56.370221 24.483234 L-57.645223 24.483234 L-57.963973 25.758236 L-58.601474 25.758236 L-58.920225 25.120735 L-59.876476 25.120735 L-60.513977 25.758236 L-60.195226 27.033238 L-60.195226 27.351988 L-59.876476 27.351988 L-60.195226 27.989489 L-60.195226 28.62699 L-60.513977 28.62699 L-60.832727 28.94574 L-61.151478 28.94574 L-61.151478 28.62699 L-61.151478 28.308239 L-61.788979 27.989489 L-62.426479 28.308239 L-62.426479 27.989489 L-62.426479 27.351988 L-62.74523 27.351988 L-63.06398 27.033238 L-63.382731 27.351988 L-63.701481 27.033238 L-64.020232 26.076986 L-64.657733 26.076986 L-65.295233 25.439486 L-65.932734 25.439486 L-66.251485 25.439486 L-67.845237 26.395737 L-67.845237 27.033238 L-68.163987 27.989489 L-67.845237 28.62699 L-67.845237 29.264491 L-68.801488 29.901992 L-69.120239 29.901992 L-69.120239 31.176993 L-69.757739 32.133245 L-70.713991 32.451995 L-71.032741 33.089496 L-71.988992 33.408246 L-71.988992 34.683248 L-72.945244 36.277 L-72.626493 36.914501 L-71.988992 39.783255 L-71.670242 39.783255 L-71.670242 39.783255 L-72.307743 40.102006 L-72.307743 40.420756 L-71.988992 41.058257 L-71.988992 41.695758 L-71.670242 42.014508 L-70.39524 42.014508 L-70.07649 42.652009 L-68.801488 42.333259 L-68.482738 42.014508 L-67.845237 42.014508 L-67.207736 43.60826 L-66.251485 44.564512 L-65.932734 45.202012 L-65.295233 44.564512 L-64.020232 45.520763 L-63.06398 45.202012 L-62.107729 45.520763 L-61.470228 44.883262 L-61.151478 44.245761 L-60.513977 44.564512 L-59.876476 45.202012 L-59.557726 45.839513 L-59.876476 46.795765 L-59.876476 46.795765 L-60.195226 46.795765 L-60.195226 47.114515 L-59.238975 47.433266 L-58.601474 48.389517 L-57.963973 48.389517 L-57.326473 49.027018 L-56.370221 49.345768 L-56.370221 49.664519 L-56.051471 49.983269 L-56.051471 50.62077 L-55.73272 50.93952 L-56.051471 51.258271 L-56.370221 51.577021 L-56.688972 52.214522 L-56.051471 53.489524 L-56.370221 53.808274 L-56.051471 54.127025 L-56.370221 55.083276 L-55.41397 55.402026 L-55.41397 56.995779 L-55.095219 57.633279 L-55.41397 58.27078 L-55.095219 58.908281 L-54.457719 59.545782 L-54.776469 60.502033 L-54.776469 61.458285 L-54.457719 61.777035 L-54.776469 63.370787 L-54.457719 64.327039 L-55.095219 64.645789 L-55.41397 65.28329 L-55.41397 66.239541 L-54.457719 66.877042 L-53.820218 66.558292 L-53.182717 67.514543 L-53.501467 68.470794 L-52.863966 69.108295 L-52.863966 70.383297 L-51.907715 71.977049 L-51.588965 71.977049 L-51.270214 72.61455 L-51.270214 73.252051 L-51.907715 73.570801 L-51.588965 73.889552 L-51.907715 74.208302 L-51.907715 75.164553 L-53.182717 76.758305 L-53.820218 77.395806 L-53.820218 78.670808 L-53.501467 78.989558 L-53.820218 79.627059 L-52.545216 80.583311 L-51.588965 80.583311 L-51.588965 81.858312 L-51.270214 82.495813 L-51.588965 83.452065 L-50.951464 83.770815 L-50.632713 86.639569 L-50.951464 86.958319 L-49.995213 88.233321 L-49.357712 88.870822 L-49.357712 89.827073 L-48.40146 89.827073 L-48.720211 91.102075 L-48.40146 91.739576 L-48.40146 92.377077 L-48.40146 93.014578 L-48.40146 93.333328 L-48.40146 94.60833 L-48.08271 94.92708 L-47.76396 95.883331 L-47.76396 96.202082 L-48.40146 96.520832 L-48.720211 97.158333 L-48.40146 97.795834 L-49.038961 97.795834 L-49.357712 98.433335 L-48.720211 100.98334 L-49.038961 101.93959 L-48.40146 102.57709 L-48.08271 104.48959 L-49.038961 106.72085 L-48.08271 107.6771 L-48.08271 108.3146 L-47.76396 108.63335 L-48.40146 109.5896 L-47.445209 110.8646 L-47.126459 112.1396 L-47.445209 112.7771 L-46.807708 114.05211 L-46.488958 115.32711 L-46.807708 116.28336 L-47.76396 117.23961 L-47.445209 117.87711 L-47.126459 119.15211 L-46.170207 119.78961 L-46.170207 121.06462 L-46.488958 122.33962 L-47.445209 122.65837 L-47.445209 122.97712 L-48.08271 123.61462 L-47.76396 123.93337 L-48.08271 124.25212 L-48.08271 125.20837 L-48.720211 125.84587 L-49.357712 126.48337 L-48.720211 127.75837 L-48.40146 127.75837 L-48.08271 128.39588 L-47.76396 128.39588 L-48.40146 128.39588 L-48.720211 129.03338 L-48.720211 130.62713 L-50.313963 129.98963 L-50.632713 130.62713 L-50.951464 130.30838 L-51.588965 131.90213 L-52.226466 132.22088 L-52.226466 132.53963 L-52.226466 132.85838 L-51.907715 133.17713 L-51.907715 133.49588 L-51.270214 133.49588 L-51.270214 133.81463 L-50.313963 133.81463 L-49.995213 134.13338 L-49.357712 134.13338 L-47.76396 134.77088 L-48.08271 135.72714 L-47.76396 136.04589 L-48.08271 136.04589 L-48.40146 137.32089 L-48.08271 138.27714 L-47.76396 140.50839 L-47.126459 141.14589 L-47.445209 141.46464 L-46.807708 141.46464 L-46.488958 142.10214 L-45.532706 141.78339 L-44.895206 143.0584 L-44.257705 143.0584 L-44.257705 143.6959 L-42.982703 145.6084 L-43.301453 147.20215 L-42.982703 148.1584 L-42.345202 148.47715 L-42.026452 148.1584 L-41.0702 148.7959 L-41.707701 149.75215 L-41.707701 149.75215 L-42.026452 150.70841 L-42.345202 150.70841 L-42.345202 151.34591 L-42.345202 151.98341 L-41.707701 151.98341 L-41.707701 152.62091 L-41.0702 152.93966 L-41.388951 153.57716 L-40.75145 153.89591 L-41.0702 154.53341 L-41.388951 154.85216 L-41.0702 156.12716 L-42.026452 157.40217 L-41.707701 157.72092 L-42.026452 157.72092 L-42.345202 159.63342 L-43.301453 160.27092 L-42.982703 160.90842 L-42.345202 161.54592 L-42.026452 162.50217 L-41.388951 163.13967 L-40.75145 164.73343 L-41.388951 166.32718 L-40.75145 166.96468 L-39.795199 166.64593 L-39.476448 167.28343 L-39.795199 167.60218 L-39.795199 168.55843 L-40.75145 168.87718 L-40.113949 169.83343 L-40.113949 170.15218 L-40.75145 170.78968 L-41.388951 170.78968 L-42.345202 172.38344 L-41.707701 173.97719 L-41.388951 173.97719 L-41.0702 174.61469 L-41.388951 174.29594 L-41.0702 174.29594 L-40.75145 174.93344 L-40.4327 174.93344 L-39.795199 175.57094 L-39.795199 174.93344 L-39.157698 174.61469 L-38.838947 175.25219 L-38.838947 175.88969 L-38.838947 175.57094 L-38.520197 176.20844 L-38.201446 175.88969 L-37.882696 176.52719 L-37.245195 175.88969 L-36.926445 176.20844 L-36.607694 177.48344 L-36.926445 178.12094 L-36.607694 178.75844 L-36.926445 179.7147 L-35.332693 181.30845 L-35.970193 181.94595 L-35.970193 182.9022 L-36.288944 183.22095 L-35.970193 183.5397 L-35.970193 184.1772 L-36.926445 184.8147 L-36.926445 185.4522 L-37.563946 186.0897 L-37.563946 186.72721 L-36.802548 188.25 " stroke="#556B2F" fill="none" stroke-opacity="1" stroke-width="1.5" stroke-linecap="butt" stroke-linejoin="round" stroke-miterlimit="10"/>
</g>
</g>
</g>
</g>
</svg>