<svg xmlns="http://www.w3.org/2000/svg" xmlns:xlink="http://www.w3.org/1999/xlink" id="Layer_1" x="0" y="0" version="1.1" viewBox="0 0 503.466 503.466" style="enable-background:new 0 0 503.466 503.466" xml:space="preserve"><g transform="translate(3 1)"><path style="fill:#ffd0a1" d="M410.44,327.533l-68.267-68.267v102.4l68.267,68.267l68.267-68.267v-102.4L410.44,327.533 L410.44,327.533z M410.44,139.8v85.333l-68.267-68.267V139.8l17.067-17.067l-17.067-17.067V71.533 c0-37.547,30.72-68.267,68.267-68.267s68.267,30.72,68.267,68.267L410.44,139.8z M478.707,225.133v34.133l-68.267,68.267v-102.4 V139.8l68.267-68.267V191l-17.067,17.067L478.707,225.133z M410.44,225.133v102.4l-68.267-68.267v-102.4L410.44,225.133z"/><polygon style="fill:#80d6fa" points="222.707 225.133 222.707 276.333 205.64 276.333 103.24 276.333 86.173 276.333 86.173 225.133"/><path style="fill:#f2edda" d="M103.24,310.466h102.4v-34.133h-102.4V310.466z M290.973,378.733v34.133H17.907v-34.133 c0-37.547,30.72-68.267,68.267-68.267h17.067h102.4h17.067C260.253,310.466,290.973,341.186,290.973,378.733z"/><path style="fill:#80d6fa" d="M290.973,412.866v51.2c0,18.773-15.36,34.133-34.133,34.133H52.04 c-18.773,0-34.133-15.36-34.133-34.133v-51.2H290.973z"/></g><path style="fill:#51565f" d="M413.44,503.466c-2.56,0-4.267-1.707-4.267-4.267V330.24l-59.733-59.733v90.453l33.28,33.28	c1.707,1.707,1.707,4.267,0,5.973c-1.707,1.707-4.267,1.707-5.973,0l-34.133-34.133c-0.853-0.853-0.853-1.707-0.853-3.413v-102.4	l0,0v-102.4l0,0V140.8c0-0.853,0.853-2.56,0.853-3.413l13.653-13.653l-13.653-13.653c-0.853-0.853-0.853-1.707-0.853-3.413V72.533	C341.76,32.427,374.187,0,414.293,0s72.533,32.427,72.533,72.533l0,0V192c0,0.853-0.853,2.56-0.853,3.413l-13.653,13.653	l13.653,13.653c0.853,0.853,0.853,1.707,0.853,3.413v34.133l0,0v102.4c0,0.853-0.853,2.56-0.853,3.413l-34.133,34.133	c-1.707,1.707-4.267,1.707-5.973,0c-1.707-1.707-1.707-4.267,0-5.973l33.28-33.28v-90.453l-59.733,59.733V499.2	C417.707,501.76,416,503.466,413.44,503.466z M417.707,226.133v92.16l59.733-59.733v-30.72l-16.213-16.213	c-1.707-1.707-1.707-4.267,0-5.973l16.213-16.213V81.92l-59.733,59.733V226.133L417.707,226.133z M349.44,258.56l59.733,59.733	V227.84l-59.733-59.733V258.56z M349.44,156.16l59.733,59.733V140.8l0,0V38.4c0-2.56,1.707-4.267,4.267-4.267	s4.267,1.707,4.267,4.267v92.16l59.733-59.733c-0.853-34.133-29.013-62.293-64-62.293s-64,29.013-64,64v32.427l16.213,16.213	c1.707,1.707,1.707,4.267,0,5.973L349.44,143.36V156.16z M259.84,503.466H55.04c-21.333,0-38.4-17.067-38.4-38.4v-85.333	c0-40.107,32.427-72.533,72.533-72.533h12.8v-25.6h-12.8c-2.56,0-4.267-1.707-4.267-4.267v-51.2c0-2.56,1.707-4.267,4.267-4.267	h136.533c2.56,0,4.267,1.707,4.267,4.267v51.2c0,2.56-1.707,4.267-4.267,4.267h-12.8v25.6h12.8	c40.107,0,72.533,32.427,72.533,72.533c0,2.56-1.707,4.267-4.267,4.267s-4.267-1.707-4.267-4.267c0-34.987-29.013-64-64-64h-85.333	c-2.56,0-4.267-1.707-4.267-4.267c0-2.56,1.707-4.267,4.267-4.267h64v-29.867c0-2.56,1.707-4.267,4.267-4.267h12.8V230.4h-128	v42.667h81.067c2.56,0,4.267,1.707,4.267,4.267c0,2.56-1.707,4.267-4.267,4.267h-64v29.867c0,2.56-1.707,4.267-4.267,4.267H89.173	c-34.987,0-64,29.013-64,64v85.333c0,16.213,13.653,29.867,29.867,29.867h204.8c16.213,0,29.867-13.653,29.867-29.867v-46.933H55.04	c-2.56,0-4.267-1.707-4.267-4.267s1.707-4.267,4.267-4.267h238.933c2.56,0,4.267,1.707,4.267,4.267v51.2	C298.24,486.4,281.173,503.466,259.84,503.466z"/></svg>